PathFileType	4	(X/Y/Z)	/Users/itak/Documents/Research/Walk-IL/dataset/trc/00345_00011.trc
DataRate	CameraRate	NumFrames	NumMarkers	Units	OrigDataRate	OrigDataStartFrame	OrigNumFrames
100.000000	100.000000	4	55	mm	100.000000	275	735
Frame#	Time	RPSI			LPSI			L3			STRN			T10			C7			CLAV			RBAK			LBAK			LSHO			LUPA			LAEL			LAOL			LWTS			LWPS			LFRA			LIFD			LHPS			LHTS			RSHO			RUPA			RAEL			RAOL			RWTS			RWPS			RFRA			RIFD			RHTS			RHPS			RBHD			LFHD			RFHD			LBHD			LHIP			RHIP			RASI			LASI			LKNE			LTHI			LANK			LTIP			LTOE			LMT1			LMT5			LHEE			RKNE			RTHI			RANK			RTIP			RTOE			RMT1			RMT5			RHEE			*53			*54			
		X1	Y1	Z1	X2	Y2	Z2	X3	Y3	Z3	X4	Y4	Z4	X5	Y5	Z5	X6	Y6	Z6	X7	Y7	Z7	X8	Y8	Z8	X9	Y9	Z9	X10	Y10	Z10	X11	Y11	Z11	X12	Y12	Z12	X13	Y13	Z13	X14	Y14	Z14	X15	Y15	Z15	X16	Y16	Z16	X17	Y17	Z17	X18	Y18	Z18	X19	Y19	Z19	X20	Y20	Z20	X21	Y21	Z21	X22	Y22	Z22	X23	Y23	Z23	X24	Y24	Z24	X25	Y25	Z25	X26	Y26	Z26	X27	Y27	Z27	X28	Y28	Z28	X29	Y29	Z29	X30	Y30	Z30	X31	Y31	Z31	X32	Y32	Z32	X33	Y33	Z33	X34	Y34	Z34	X35	Y35	Z35	X36	Y36	Z36	X37	Y37	Z37	X38	Y38	Z38	X39	Y39	Z39	X40	Y40	Z40	X41	Y41	Z41	X42	Y42	Z42	X43	Y43	Z43	X44	Y44	Z44	X45	Y45	Z45	X46	Y46	Z46	X47	Y47	Z47	X48	Y48	Z48	X49	Y49	Z49	X50	Y50	Z50	X51	Y51	Z51	X52	Y52	Z52	X53	Y53	Z53	X54	Y54	Z54	X55	Y55	Z55	

276	2.75	736.3154296875	943.66064453125	205.8272247314453	609.430908203125	932.450439453125	181.7665405273438	686.595703125	993.8013916015625	195.8947448730469	668.427001953125	1180.680297851562	-35.31375503540039	686.9917602539062	1111.87109375	209.3673095703125	657.4821166992188	1358.824096679688	169.1515655517578	655.252197265625	1305.706420898438	10.17998123168945	737.0972900390625	1223.425659179688	210.0819549560547	561.3916015625	1315.80029296875	187.0724639892578	496.7018127441406	1329.018432617188	107.772216796875	445.2152404785156	1214.261352539062	156.1146392822266	448.4574584960938	1016.867248535156	198.7666473388672	526.0679321289062	1016.810974121094	230.8705139160156	468.5903015136719	751.8548583984375	174.9245910644531	431.0704650878906	759.0984497070312	232.2682647705078	442.0356140136719	913.9379272460938	219.6034698486328	500.4915161132812	604.2599487304688	231.0520324707031	447.2864379882812	695.0070190429688	260.5829467773438	463.2626647949219	674.9112548828125	202.3210144042969	815.0160522460938	1357.425537109375	102.4769897460938	883.866455078125	1299.782104492188	103.8832244873047	986.412109375	1063.798706054688	26.06410789489746	912.1076049804688	1022.44921875	66.23085784912109	968.950927734375	899.8551025390625	-167.3019561767578	1040.996337890625	884.018798828125	-147.0039978027344	1007.922180175781	1013.408874511719	-22.96981239318848	996.108154296875	760.1307983398438	-263.0620422363281	994.2503662109375	830.0375366210938	-242.4217834472656	1048.929077148438	818.2559814453125	-201.6950378417969	730.47607421875	1574.555908203125	97.18984985351562	572.3026733398438	1567.214233398438	-38.51449584960938	672.0802612304688	1575.063110351562	-55.14803314208984	595.8043823242188	1560.98583984375	146.5446929931641	523.2769775390625	875.5275268554688	75.93545532226562	860.70068359375	890.921875	146.5646820068359	839.9909057617188	912.608154296875	33.43153381347656	608.64501953125	903.5350952148438	-27.68430519104004	604.9794921875	443.9046630859375	-101.3515167236328	567.7566528320312	573.2435913085938	-62.60489654541016	687.5302124023438	34.09574127197266	-135.4338836669922	631.2636108398438	223.2233428955078	-120.9289932250977	666.5835571289062	69.07831573486328	-343.6870727539062	729.4180908203125	44.46115875244141	-298.1763610839844	630.6494140625	48.54894638061523	-245.1792907714844	762.5372314453125	31.50650978088379	-128.3076782226562	851.4920043945312	444.9522094726562	211.9403839111328	882.6873168945312	685.1105346679688	115.5843658447266	789.4410400390625	92.62954711914062	458.8060302734375	843.1254272460938	332.4056701660156	259.9414978027344	811.8452758789062	35.64206314086914	282.3838500976562	753.0363159179688	39.80522918701172	308.5665588378906	840.5177612304688	35.71826934814453	390.6495056152344	728.5352172851562	119.0773468017578	479.2879638671875	nan	nan	nan	nan	nan	nan	
277	2.76	736.6231689453125	943.9913940429688	194.6234130859375	609.5795288085938	933.1481323242188	170.9551849365234	686.68603515625	994.0097045898438	185.0466918945312	666.8276977539062	1181.586059570312	-45.55632019042969	686.4226684570312	1112.102905273438	199.1180267333984	656.1950073242188	1359.155883789062	159.5492401123047	653.5975952148438	1306.414794921875	0.4699104726314545	736.055908203125	1223.79833984375	199.9818420410156	560.1651000976562	1315.841796875	177.7124481201172	495.2580261230469	1329.192260742188	98.55152130126953	444.1036376953125	1213.9580078125	146.2846069335938	448.0869445800781	1016.200988769531	187.6077423095703	525.5337524414062	1016.450439453125	220.3579711914062	469.7268371582031	751.594970703125	161.0659027099609	431.9315185546875	757.9039306640625	218.3755035400391	442.1256103515625	912.9761352539062	207.4860992431641	502.5046691894531	603.6090087890625	215.4292907714844	448.5733032226562	693.5697021484375	245.9640655517578	464.9154968261719	674.2565307617188	187.4816436767578	813.6397705078125	1357.941772460938	92.40141296386719	882.363525390625	1300.129516601562	93.86670684814453	983.4877319335938	1062.887451171875	18.00186920166016	908.9757690429688	1022.484313964844	58.36446380615234	963.77099609375	897.621337890625	-173.8936004638672	1036.029907226562	881.805908203125	-154.435791015625	1004.517272949219	1012.042663574219	-30.71681594848633	988.964111328125	756.9693603515625	-268.792724609375	987.8325805664062	827.1187744140625	-248.7881164550781	1042.968627929688	815.4259033203125	-208.7119293212891	729.167236328125	1575.006103515625	87.68949127197266	570.3297729492188	1567.96337890625	-47.25092315673828	670.0399780273438	1575.801025390625	-64.35646057128906	594.7684326171875	1561.426635742188	137.6964874267578	522.6153564453125	876.8013916015625	65.34217834472656	860.7899169921875	891.097900390625	134.1949462890625	839.3616333007812	913.1903076171875	21.33695220947266	607.7369995117188	904.7151489257812	-38.47306442260742	604.47802734375	444.4120178222656	-110.7406158447266	566.84716796875	574.0054931640625	-72.43389892578125	688.140625	34.95619201660156	-136.4512023925781	631.5846557617188	223.1732025146484	-127.1679153442383	668.8653564453125	63.63589477539062	-346.3392944335938	731.1871948242188	39.49629211425781	-299.5682373046875	632.3314819335938	46.77002716064453	-247.1817626953125	763.0704956054688	31.79043388366699	-129.2050018310547	853.9818115234375	445.6597595214844	197.7877655029297	883.1599731445312	685.4212646484375	102.0344467163086	792.1911010742188	99.19174957275391	453.94873046875	846.1766967773438	334.0936279296875	248.4528961181641	812.2966918945312	35.53498458862305	282.4639892578125	754.2965698242188	40.46710586547852	307.2891540527344	842.017333984375	37.79608154296875	389.1446533203125	731.8854370117188	127.4308853149414	473.160400390625	nan	nan	nan	nan	nan	nan	
278	2.77	736.9343872070312	944.4591674804688	183.0807495117188	609.713134765625	934.1109619140625	160.2363586425781	686.7420043945312	994.4800415039062	174.1981353759766	665.1292114257812	1182.740478515625	-55.80477523803711	685.786865234375	1112.551879882812	188.8033752441406	654.9015502929688	1359.714233398438	149.9501190185547	651.8974609375	1307.351318359375	-9.210699081420898	734.998291015625	1224.391845703125	189.8672943115234	558.9131469726562	1316.13232421875	168.3723449707031	493.8036499023438	1329.632690429688	89.35481262207031	442.896240234375	1213.941528320312	136.4062347412109	447.4894104003906	1015.80712890625	176.2245788574219	524.7293701171875	1016.327514648438	209.7149047851562	470.4283142089844	751.68603515625	146.7182464599609	432.3164672851562	757.0048828125	203.9559478759766	441.9021606445312	912.2825927734375	195.0495300292969	503.9070739746094	603.1746215820312	199.0768585205078	449.3091430664062	692.3780517578125	230.7195587158203	466.0028381347656	673.9124145507812	171.9787445068359	812.2120971679688	1358.679565429688	82.29943084716797	880.8107299804688	1300.696899414062	83.80545043945312	980.384033203125	1062.142333984375	10.05207538604736	905.5453491210938	1022.746826171875	50.46491622924805	958.5770874023438	895.2412719726562	-180.1544799804688	1031.036743164062	879.5443725585938	-161.4700317382812	1000.941650390625	1010.797607421875	-38.29498672485352	981.9432983398438	753.4224853515625	-273.7527770996094	981.4905395507812	823.9224243164062	-254.626220703125	1037.048950195312	812.3912353515625	-215.1214294433594	727.7525024414062	1575.685546875	78.13115692138672	568.2073974609375	1568.847900390625	-55.98878479003906	667.8295288085938	1576.714599609375	-73.59431457519531	593.6521606445312	1562.035766601562	128.8374786376953	521.8582153320312	878.2935180664062	55.00555419921875	860.7919921875	891.4788818359375	121.5894393920898	838.464111328125	914.0107421875	9.075736045837402	606.5054931640625	906.13134765625	-49.13278579711914	603.9197998046875	445.0625305175781	-119.8604507446289	565.8646240234375	574.8628540039062	-81.82954406738281	688.5332641601562	35.90316009521484	-137.4856262207031	631.7211303710938	223.345947265625	-133.2087707519531	671.1792602539062	58.77339935302734	-348.7669982910156	732.9326171875	35.13213729858398	-300.7395629882812	633.9078369140625	45.3487434387207	-249.1635284423828	763.358642578125	32.22805404663086	-130.0025024414062	856.7395629882812	446.4356689453125	182.4951934814453	883.5086669921875	685.8861083984375	87.88520050048828	795.4765625	106.2895278930664	448.1260070800781	849.5538330078125	335.906005859375	235.7943115234375	812.8286743164062	35.24251937866211	282.3368225097656	755.7293701171875	41.22893905639648	305.6640930175781	843.725341796875	40.29877471923828	387.1610717773438	735.8499145507812	136.4037322998047	465.8086853027344	nan	nan	nan	nan	nan	nan	
279	2.78	737.260986328125	945.0293579101562	171.2590637207031	609.8487548828125	935.2897338867188	149.6861724853516	686.7823486328125	995.1741333007812	163.4043731689453	663.3211669921875	1184.104614257812	-66.02794647216797	685.1160888671875	1113.180541992188	178.4394683837891	653.6369018554688	1360.46337890625	140.3782501220703	650.161865234375	1308.480834960938	-18.83738136291504	733.9573364257812	1225.167846679688	179.7616424560547	557.673583984375	1316.64990234375	159.0843658447266	492.366455078125	1330.323608398438	80.22476196289062	441.6153259277344	1214.204956054688	126.5291748046875	446.6719055175781	1015.677917480469	164.6491088867188	523.664794921875	1016.4072265625	198.9418487548828	470.69580078125	752.1207275390625	131.9031524658203	432.2310485839844	756.4029541015625	189.0301208496094	441.3676452636719	911.8508911132812	182.3111419677734	504.713134765625	602.9605102539062	182.0404052734375	449.4877014160156	691.4396362304688	214.875244140625	466.5326538085938	673.8851318359375	155.8550720214844	810.7556762695312	1359.595825195312	72.17759704589844	879.2344970703125	1301.445190429688	73.69624328613281	977.137939453125	1061.536865234375	2.198306083679199	901.8690185546875	1023.197814941406	42.54595947265625	953.4093627929688	892.72021484375	-186.1229705810547	1026.051879882812	877.214599609375	-168.1320495605469	997.2355346679688	1009.650634765625	-45.72361373901367	975.0887451171875	749.51953125	-278.0005493164062	975.24951171875	820.442626953125	-259.9609069824219	1031.208984375	809.154052734375	-220.9574432373047	726.2574462890625	1576.563598632812	68.52704620361328	565.95654296875	1569.831909179688	-64.70836639404297	665.4660034179688	1577.764892578125	-82.84375762939453	592.480224609375	1562.78271484375	119.9853820800781	521.0311889648438	879.9293823242188	45.01274490356445	860.7015991210938	892.0507202148438	108.8211135864258	837.288818359375	915.0401000976562	-3.28167986869812	604.9413452148438	907.7322998046875	-59.60034942626953	603.3045654296875	445.8246459960938	-128.6625213623047	564.8319702148438	575.820068359375	-90.84256744384766	688.7230834960938	36.86492538452148	-138.5162963867188	631.6844482421875	223.6689605712891	-138.9942474365234	673.4266357421875	54.49452972412109	-350.9290771484375	734.5918579101562	31.3924446105957	-301.6961364746094	635.3267822265625	44.23024368286133	-251.0733947753906	763.4261474609375	32.75127410888672	-130.6970977783203	859.732666015625	447.2303161621094	166.0693817138672	883.7302856445312	686.4903564453125	73.21416473388672	799.3365478515625	113.8873443603516	441.235595703125	853.2144775390625	337.7845458984375	221.9280395507812	813.4600219726562	34.73752975463867	281.837890625	757.3197021484375	42.15835189819336	303.5850524902344	845.662353515625	43.29948043823242	384.5338134765625	740.47265625	145.9443664550781	457.1644592285156	nan	nan	nan	nan	nan	nan	
